<svg width="18" height="18" viewBox="0 0 18 18" fill="none" xmlns="http://www.w3.org/2000/svg">
<path d="M17.2031 15.0105C17.789 15.5962 17.7891 16.546 17.2034 17.1318C16.6176 17.7177 15.6679 17.7178 15.082 17.1321L17.2031 15.0105ZM13.9122 13.8414L12.8516 14.9022L12.8515 14.902L13.9122 13.8414ZM0.500197 1.9294C0.500196 1.10097 1.17177 0.429401 2.0002 0.429401L15.5002 0.4294C16.3286 0.4294 17.0002 1.10097 17.0002 1.9294C17.0002 2.75783 16.3286 3.4294 15.5002 3.4294L3.5002 3.4294L3.5002 15.4294C3.5002 16.2578 2.82862 16.9294 2.0002 16.9294C1.17177 16.9294 0.500196 16.2578 0.500196 15.4294L0.500197 1.9294ZM15.082 17.1321L12.8516 14.9022L14.9727 12.7806L17.2031 15.0105L15.082 17.1321ZM12.8515 14.902L0.939536 2.99006L3.06086 0.86874L14.9728 12.7807L12.8515 14.902Z" fill="#1E2A2E"/>
</svg>
