<svg width="30" height="30" viewBox="0 0 30 30" fill="none" xmlns="http://www.w3.org/2000/svg">
<path d="M19.49 18.7536C18.5413 19.5885 17.3144 20.0417 16.0484 20.0247C13.1311 20.0247 10.9886 17.8911 10.9886 14.9629C10.9886 12.0348 13.0627 9.99195 16.0484 9.99195C17.3172 9.97486 18.5488 10.4187 19.5128 11.2404L20.151 11.7851L22.9772 8.97051L22.2707 8.31225C20.5612 6.79123 18.3406 5.96494 16.0484 5.99699C10.8063 5.99699 7 9.76496 7 14.9402C7 20.1155 10.8974 23.997 16.0484 23.997C18.3623 24.0279 20.6019 23.1843 22.3162 21.6363L23 21.0008L20.1282 18.1862L19.49 18.7536Z" fill="#F4F5F6"/>
<path d="M15.9102 18.0076C17.5844 18.0076 18.9416 16.6559 18.9416 14.9886C18.9416 13.3213 17.5844 11.9697 15.9102 11.9697C14.2361 11.9697 12.8789 13.3213 12.8789 14.9886C12.8789 16.6559 14.2361 18.0076 15.9102 18.0076Z" fill="#F4F5F6"/>
</svg>
