<svg width="26" height="18" viewBox="0 0 26 18" fill="none" xmlns="http://www.w3.org/2000/svg">
<g id="flag">
<g clipPath="url(#clip0_35_1603)">
<path id="Vector" d="M10.75 3.23706V4.54297H24.9869C24.967 4.12184 24.9242 3.58943 24.7712 3.23706" fill="#EC1C24"/>
<path id="Vector_2" d="M24.1 1.93091H10.75V3.23682H24.7712C24.619 2.74961 24.3925 2.3053 24.1 1.93091Z" fill="#E6E7E8"/>
<path id="Vector_3" d="M21.25 0.625H10.75V1.93091H24.1C23.4741 1.12341 22.444 0.625 21.25 0.625Z" fill="#EC1C24"/>
<path id="Vector_4" d="M24.9869 4.54297H10.75V5.84888H25V4.9784C25 4.90074 24.9951 4.82502 24.9929 4.7489C24.9914 4.72804 24.9891 4.67433 24.9869 4.54297Z" fill="#E6E7E8"/>
<path id="Vector_5" d="M10.75 7.1543H25V5.84839H10.75V7.1543Z" fill="#EC1C24"/>
<path id="Vector_6" d="M10.75 8.46045H25V7.15454H10.75V8.46045Z" fill="#E6E7E8"/>
<path id="Vector_7" d="M10.75 8.46045H25V9.76636H10.75V8.46045Z" fill="#EC1C24"/>
<path id="Vector_8" d="M1 9.76636V11.0723H25V9.76636H10.75H1Z" fill="#E6E7E8"/>
<path id="Vector_9" d="M1 11.0725H25V12.3784H1V11.0725Z" fill="#EC1C24"/>
<path id="Vector_10" d="M1.00187 13.1812C1.00187 13.1812 0.9985 13.4976 1.0075 13.6838H24.9925C25.003 13.493 24.9981 13.1812 24.9981 13.1812L25 12.3779H1L1.00187 13.1812Z" fill="#E6E7E8"/>
<path id="Vector_11" d="M4.75125 17.625H21.2512C22.4486 17.625 23.4439 17.1768 24.1238 16.2959H1.875C2.577 17.1961 3.591 17.625 4.74937 17.625" fill="#EC1C24"/>
<path id="Vector_12" d="M1.87531 16.2959H24.1241C24.4207 15.9076 24.6422 15.4643 24.7766 14.99H1.22656C1.36347 15.4629 1.58406 15.9056 1.87719 16.2959" fill="#E6E7E8"/>
<path id="Vector_13" d="M1.22531 14.9898H24.7753C24.8981 14.5649 24.9711 14.1265 24.9928 13.6838H1.00781C1.04494 14.1305 1.07944 14.4678 1.22531 14.9898Z" fill="#EC1C24"/>
<path id="Vector_14" d="M10.75 0.625H4.75C2.26488 0.625 1 2.52785 1 4.87501V9.76639H10.75V0.625Z" fill="#176496"/>
<path id="Vector_15" d="M2.05025 2.93362L2.25425 2.77212L2.45788 2.93362L2.37875 2.67399L2.58163 2.51519H2.33112L2.2535 2.25439L2.17625 2.51519H1.92612L2.12975 2.67399L2.05025 2.93362ZM3.398 2.93362L3.602 2.77212L3.80562 2.93362L3.72688 2.67399L3.92937 2.51519H3.67925L3.60162 2.25439L3.52437 2.51519H3.2735L3.47713 2.67399L3.398 2.93362ZM4.88488 2.93362L5.0885 2.77212L5.2925 2.93362L5.21338 2.67399L5.41587 2.51519H5.16725L5.0885 2.25439L5.01087 2.51519H4.76225L4.96362 2.67399L4.88488 2.93362ZM6.36088 2.93362L6.5645 2.77212L6.7685 2.93362L6.68975 2.67399L6.89225 2.51519H6.641L6.5645 2.25439L6.48725 2.51519H6.23675L6.44 2.67399L6.36088 2.93362ZM7.84212 2.93362L8.04613 2.77212L8.24975 2.93362L8.171 2.67399L8.37387 2.51519H8.123L8.04575 2.25439L7.9685 2.51519H7.71838L7.92087 2.67399L7.84212 2.93362ZM2.76762 3.61169L2.97125 3.45058L3.17488 3.61169L3.0965 3.35244L3.299 3.19365H3.0485L2.97087 2.93324L2.89475 3.19365H2.6435L2.84637 3.35244L2.76762 3.61169ZM4.11575 3.61169L4.31938 3.45058L4.523 3.61169L4.44425 3.35244L4.64675 3.19365H4.39475L4.31938 2.93324L4.24175 3.19365H3.99162L4.1945 3.35244L4.11575 3.61169ZM5.60263 3.61169L5.80588 3.45058L6.0095 3.61169L5.93075 3.35244L6.13363 3.19365H5.8835L5.80588 2.93324L5.72825 3.19365H5.47775L5.68063 3.35244L5.60263 3.61169ZM7.07788 3.61169L7.28188 3.45058L7.48588 3.61169L7.406 3.35244L7.60925 3.19365H7.35913L7.2815 2.93324L7.20463 3.19365H6.95413L7.157 3.35244L7.07788 3.61169ZM8.561 3.61169L8.76312 3.45058L8.96675 3.61169L8.88725 3.35244L9.0905 3.19365H8.84075L8.76275 2.93324L8.68587 3.19365H8.43538L8.63825 3.35244L8.561 3.61169ZM9.39612 2.93362L9.59975 2.77212L9.80375 2.93362L9.72463 2.67399L9.92712 2.51519H9.6785L9.59938 2.25439L9.52213 2.51519H9.26975L9.47488 2.67399L9.39612 2.93362ZM2.03037 8.35973L2.23438 8.20016L2.438 8.35973L2.35925 8.10241L2.56175 7.94323L2.31162 7.944L2.23362 7.68359L2.15712 7.944L1.90625 7.94323L2.10912 8.10241L2.03037 8.35973ZM3.3785 8.35973L3.58212 8.20016L3.78612 8.35973L3.707 8.10241L3.9095 7.94323L3.65975 7.944L3.58175 7.68359L3.50487 7.944L3.25475 7.94323L3.45725 8.10241L3.3785 8.35973ZM4.86538 8.35973L5.069 8.20016L5.273 8.35973L5.19388 8.10241L5.39637 7.94323L5.14475 7.944L5.06863 7.68359L4.99137 7.944L4.74125 7.94323L4.94412 8.10241L4.86538 8.35973ZM6.34137 8.35973L6.545 8.20016L6.74862 8.35973L6.671 8.10241L6.87238 7.94323L6.62188 7.944L6.54462 7.68359L6.46737 7.944L6.21725 7.94323L6.41975 8.10241L6.34137 8.35973ZM7.82225 8.35973L8.02625 8.20016L8.23025 8.35973L8.15225 8.10241L8.35363 7.94323L8.1035 7.944L8.02588 7.68359L7.949 7.944L7.6985 7.94323L7.901 8.10241L7.82225 8.35973ZM9.37625 8.35973L9.57988 8.20016L9.78387 8.35973L9.70475 8.10241L9.90763 7.94323L9.656 7.944L9.5795 7.68359L9.50225 7.944L9.251 7.94323L9.455 8.10241L9.37625 8.35973ZM2.05025 4.29054L2.25425 4.12903L2.45788 4.29054L2.37875 4.0309L2.58163 3.8721L2.33112 3.87288L2.2535 3.61169L2.17625 3.87288L1.92612 3.8721L2.12975 4.0309L2.05025 4.29054ZM3.398 4.29054L3.602 4.12903L3.80562 4.29054L3.72688 4.0309L3.92937 3.8721L3.67925 3.87288L3.60162 3.61169L3.52437 3.87288L3.2735 3.8721L3.47713 4.0309L3.398 4.29054ZM4.88488 4.29054L5.0885 4.12903L5.2925 4.29054L5.21338 4.0309L5.41587 3.8721L5.16725 3.87288L5.0885 3.61169L5.01087 3.87288L4.76225 3.8721L4.96362 4.0309L4.88488 4.29054ZM6.36088 4.29054L6.5645 4.12903L6.7685 4.29054L6.68975 4.0309L6.89225 3.8721L6.641 3.87288L6.5645 3.61169L6.48725 3.87288L6.23675 3.8721L6.44 4.0309L6.36088 4.29054ZM7.84212 4.29054L8.04613 4.12903L8.24975 4.29054L8.171 4.0309L8.37387 3.8721L8.123 3.87288L8.04575 3.61169L7.9685 3.87288L7.71838 3.8721L7.92087 4.0309L7.84212 4.29054ZM2.76762 4.96899L2.97125 4.80788L3.17488 4.96899L3.0965 4.70974L3.299 4.55017H3.0485L2.97087 4.29054L2.89475 4.55017H2.6435L2.84637 4.70974L2.76762 4.96899ZM4.11575 4.96899L4.31938 4.80788L4.523 4.96899L4.44425 4.70974L4.64675 4.55017H4.39475L4.31938 4.29054L4.24175 4.55017H3.99162L4.1945 4.70974L4.11575 4.96899ZM5.60263 4.96899L5.80588 4.80788L6.0095 4.96899L5.93075 4.70974L6.13363 4.55017H5.8835L5.80588 4.29054L5.72825 4.55017H5.47775L5.68063 4.70974L5.60263 4.96899ZM7.07788 4.96899L7.28188 4.80788L7.48588 4.96899L7.406 4.70974L7.60925 4.55017H7.35913L7.2815 4.29054L7.20463 4.55017H6.95413L7.157 4.70974L7.07788 4.96899ZM8.561 4.96899L8.76312 4.80788L8.96675 4.96899L8.88725 4.70974L9.0905 4.55017H8.84075L8.76275 4.29054L8.68587 4.55017H8.43538L8.63825 4.70974L8.561 4.96899ZM9.39612 4.29054L9.59975 4.12903L9.80375 4.29054L9.72463 4.0309L9.92712 3.8721L9.6785 3.87288L9.59938 3.61169L9.52213 3.87288L9.26975 3.8721L9.47488 4.0309L9.39612 4.29054ZM2.03037 5.64745L2.23438 5.48633L2.438 5.64745L2.35888 5.38858L2.56175 5.2294L2.31125 5.23017L2.23362 4.96899L2.15712 5.23017L1.90625 5.2294L2.10912 5.38858L2.03037 5.64745ZM3.3785 5.64745L3.58212 5.48633L3.78612 5.64745L3.707 5.38858L3.9095 5.2294L3.65975 5.23017L3.58175 4.96899L3.50487 5.23017L3.25475 5.2294L3.45687 5.38858L3.3785 5.64745ZM4.86538 5.64745L5.069 5.48633L5.27262 5.64745L5.19388 5.38858L5.39637 5.2294L5.14475 5.23017L5.06863 4.96899L4.99137 5.23017L4.74125 5.2294L4.94412 5.38858L4.86538 5.64745ZM6.34137 5.64745L6.54462 5.48633L6.74862 5.64745L6.671 5.38858L6.87238 5.2294L6.62188 5.23017L6.54462 4.96899L6.46737 5.23017L6.21725 5.2294L6.41975 5.38858L6.34137 5.64745ZM7.82225 5.64745L8.02625 5.48633L8.22988 5.64745L8.15225 5.38858L8.35363 5.2294L8.10312 5.23017L8.02588 4.96899L7.949 5.23017L7.6985 5.2294L7.901 5.38858L7.82225 5.64745ZM2.74775 6.3259L2.95138 6.16518L3.155 6.3259L3.07662 6.06859L3.27875 5.90863H3.02825L2.951 5.64745L2.87412 5.90863H2.62363L2.8265 6.06859L2.74775 6.3259ZM4.09588 6.3259L4.2995 6.16518L4.50312 6.3259L4.42437 6.06859L4.62687 5.90863H4.376L4.29912 5.64745L4.22187 5.90863H3.97137L4.17463 6.06859L4.09588 6.3259ZM5.58313 6.3259L5.786 6.16518L5.99 6.3259L5.90975 6.06859L6.11375 5.90863H5.86362L5.786 5.64745L5.70875 5.90863H5.45825L5.66113 6.06859L5.58313 6.3259ZM7.05725 6.3259L7.262 6.16518L7.466 6.3259L7.38725 6.06859L7.58938 5.90863H7.33925L7.26163 5.64745L7.18475 5.90863H6.93425L7.13713 6.06859L7.05725 6.3259ZM8.5385 6.3259L8.74325 6.16518L8.94725 6.3259L8.86812 6.06859L9.07137 5.90863H8.82125L8.74325 5.64745L8.666 5.90863H8.4155L8.61837 6.06859L8.5385 6.3259ZM9.37625 5.64745L9.57988 5.48633L9.7835 5.64745L9.70475 5.38858L9.90763 5.2294L9.656 5.23017L9.5795 4.96899L9.50225 5.23017L9.251 5.2294L9.455 5.38858L9.37625 5.64745ZM2.03037 7.00475L2.23438 6.84518L2.438 7.00475L2.35888 6.7455L2.56175 6.58631L2.31125 6.58709L2.23362 6.3259L2.15712 6.58709L1.90625 6.58631L2.10912 6.7455L2.03037 7.00475ZM3.3785 7.00475L3.58212 6.84518L3.78612 7.00475L3.707 6.7455L3.9095 6.58631L3.65975 6.58709L3.58175 6.3259L3.50487 6.58709L3.25475 6.58631L3.45687 6.7455L3.3785 7.00475ZM4.86538 7.00475L5.069 6.84518L5.27262 7.00475L5.19388 6.7455L5.39637 6.58631L5.14475 6.58709L5.06863 6.3259L4.99137 6.58709L4.74125 6.58631L4.94412 6.7455L4.86538 7.00475ZM6.34137 7.00475L6.54462 6.84518L6.74862 7.00475L6.671 6.7455L6.87238 6.58631L6.62188 6.58709L6.54462 6.3259L6.46737 6.58709L6.21725 6.58631L6.41975 6.7455L6.34137 7.00475ZM7.82225 7.00475L8.02625 6.84518L8.22988 7.00475L8.15225 6.7455L8.35363 6.58631L8.10312 6.58709L8.02588 6.3259L7.949 6.58709L7.6985 6.58631L7.901 6.7455L7.82225 7.00475ZM2.74775 7.68359L2.95138 7.52209L3.155 7.68359L3.07662 7.42395L3.27875 7.26632H3.02825L2.951 7.00475L2.87412 7.26632H2.62363L2.8265 7.42395L2.74775 7.68359ZM4.09588 7.68359L4.2995 7.52209L4.50312 7.68359L4.42437 7.42395L4.62687 7.26632H4.376L4.29912 7.00475L4.22187 7.26632H3.97137L4.17463 7.42395L4.09588 7.68359ZM5.58313 7.68359L5.786 7.52209L5.99 7.68359L5.90975 7.42395L6.11375 7.26632H5.86362L5.786 7.00475L5.70875 7.26632H5.45825L5.66113 7.42395L5.58313 7.68359ZM7.05725 7.68359L7.262 7.52209L7.466 7.68359L7.38725 7.42395L7.58938 7.26632H7.33925L7.26163 7.00475L7.18475 7.26632H6.93425L7.13713 7.42395L7.05725 7.68359ZM8.5385 7.68359L8.74325 7.52209L8.94725 7.68359L8.86812 7.42395L9.07137 7.26632H8.82125L8.74325 7.00475L8.666 7.26632H8.4155L8.61837 7.42395L8.5385 7.68359ZM9.37625 7.00475L9.57988 6.84518L9.7835 7.00475L9.70475 6.7455L9.90763 6.58631L9.656 6.58709L9.5795 6.3259L9.50225 6.58709L9.251 6.58631L9.455 6.7455L9.37625 7.00475Z" fill="white"/>
</g>
<rect x="0.75" y="0.25" width="24.5" height="17.5" rx="4.25" stroke="#38434A" stroke-width="0.5"/>
</g>
<defs>
<clipPath id="clip0_35_1603">
<rect x="1" y="0.5" width="24" height="17" rx="4" fill="white"/>
</clipPath>
</defs>
</svg>
