<svg width="30" height="30" viewBox="0 0 30 30" fill="none" xmlns="http://www.w3.org/2000/svg">
<path fill-rule="evenodd" clip-rule="evenodd" d="M21.6984 6.02025C21.6984 6.02025 22.32 7.6194 21.7826 9.07978C22.0352 9.36553 22.3931 9.79273 22.5981 10.2454C23.2333 11.6483 22.9548 13.4154 22.8362 13.9433C22.7211 14.4553 22.5433 15.674 21.089 16.7807C20.0556 17.567 17.5775 17.9152 17.5775 17.9152C17.5775 17.9152 17.9948 18.4094 18.0848 18.5979C18.5119 19.492 18.4052 20.226 18.4052 20.6982C18.4052 21.6871 18.4052 22.5449 18.4052 23.2544C18.4052 23.4917 18.7829 23.9849 18.7615 23.995C18.7402 24.005 12.3783 23.995 12.3783 23.995C12.3783 23.995 12.6567 23.3232 12.7045 22.8969C12.7546 22.4497 12.7045 21.2538 12.7045 21.2538C12.7045 21.2538 11.9025 21.4438 11.1345 21.3948C10.3666 21.3458 9.91104 21.0916 9.49 20.7767C8.79241 20.2549 8.64539 19.3932 8.26445 18.8286C7.88327 18.2637 7.40335 17.9927 7.15991 17.8107C6.7994 17.5413 7.08159 17.3544 7.675 17.4697C8.26841 17.585 8.67993 17.9732 8.94673 18.2856C9.20907 18.5928 9.66185 19.5261 10.5903 19.8228C11.5187 20.1195 12.7584 19.5837 12.7584 19.5837C12.7584 19.5837 12.8678 18.8714 13.0966 18.5028C13.3255 18.1343 13.6261 17.9152 13.6261 17.9152C13.6261 17.9152 11.1941 17.6403 10.061 16.7807C9.61441 16.4419 8.69125 15.7313 8.3109 13.9433C7.93055 12.1552 8.22992 10.9622 8.5582 10.2454C8.79466 9.72914 9.36209 9.05916 9.36209 9.05916C9.36209 9.05916 9.08078 8.30332 9.1152 7.5456C9.14961 6.78788 9.44634 6.02025 9.44634 6.02025C9.44634 6.02025 9.58283 5.99445 9.73785 6.00407C10.5651 6.05541 11.5697 6.53992 12.6128 7.23613C14.9646 6.57254 17.1637 6.84714 18.5168 7.23613C20.6756 5.84179 21.6984 6.02025 21.6984 6.02025Z" fill="#F4F5F6"/>
</svg>
