<svg width="30" height="30" viewBox="0 0 30 30" fill="none" xmlns="http://www.w3.org/2000/svg">
<path d="M21 6H9C7.3 6 6 7.3 6 9V21C6 22.7 7.3 24 9 24H21C22.7 24 24 22.7 24 21V9C24 7.3 22.7 6 21 6ZM15 12C16.7 12 18 13.3 18 15C18 16.7 16.7 18 15 18C13.3 18 12 16.7 12 15C12 13.3 13.3 12 15 12ZM18.8 10C18.8 9.3 19.4 8.8 20 8.8C20.6 8.8 21.2 9.4 21.2 10C21.2 10.6 20.7 11.2 20 11.2C19.3 11.2 18.8 10.7 18.8 10ZM21 22H9C8.4 22 8 21.6 8 21V15H10C10 17.8 12.2 20 15 20C17.8 20 20 17.8 20 15H22V21C22 21.6 21.6 22 21 22Z" fill="#DEE3E9"/>
</svg>
