<svg width="30" height="30" viewBox="0 0 30 30" fill="none" xmlns="http://www.w3.org/2000/svg">
<path fill-rule="evenodd" clip-rule="evenodd" d="M6 12H10V24H6V12ZM7.99006 10H7.9662C6.77336 10 6 9.11872 6 8.00272C6 6.8639 6.79622 6 8.01292 6C9.22863 6 9.97614 6.86172 10 7.99946C10 9.11546 9.22863 10 7.99006 10ZM24 24H19.9868V17.8488C19.9868 16.239 19.3591 15.1411 17.9786 15.1411C16.9228 15.1411 16.3356 15.8816 16.0623 16.5975C15.9598 16.8529 15.9758 17.2102 15.9758 17.5687V24H12C12 24 12.0512 12.9903 12 12H16V14C16.2349 13.1845 17.4811 12 19.5085 12C22.0238 12 24 13.7106 24 17.3906V24Z" fill="#F4F5F6"/>
</svg>
