<svg width="30" height="30" viewBox="0 0 30 30" fill="none" xmlns="http://www.w3.org/2000/svg">
<path fill-rule="evenodd" clip-rule="evenodd" d="M6.72742 9.67218C6.75617 9.39348 6.64787 9.11856 6.43704 8.93151L4 6.38073V6H11L16.1124 17.1431L20.6434 6H27V6.38073L25.1638 8.1162C25.0057 8.23524 25 8.5 25 8.5V15V18.1992V19.8047V21.5C25 21.5 25.0057 21.7648 25.1638 21.8838L27 23.6193V24H17.937V23.6193L19.7952 21.8413C19.9773 21.6618 20 21.5 20 21.5L19.9773 11.0269L14.6977 24H14L8.10167 11.0269V19.7355C8.05183 20.0992 8.1745 20.4667 8.43421 20.7293L10.8502 23.6183V24H4V23.6183L6.41596 20.7293C6.67471 20.4658 6.78971 20.0964 6.72742 19.7355V9.67218Z" fill="#DEE3E9"/>
</svg>
