<svg width="50" height="50" viewBox="0 0 50 50" fill="none" xmlns="http://www.w3.org/2000/svg">
<g style="mix-blend-mode:luminosity">
<path d="M20.1302 27.8818C21.7139 27.8818 22.9977 26.603 22.9977 25.0256C22.9977 23.4482 21.7139 22.1694 20.1302 22.1694C18.5465 22.1694 17.2627 23.4482 17.2627 25.0256C17.2627 26.603 18.5465 27.8818 20.1302 27.8818Z" fill="#39D3FD"/>
<path d="M20.5 31.9042C31.2696 31.9042 40 28.5887 40 24.4987C40 20.4088 31.2696 17.0933 20.5 17.0933C9.73045 17.0933 1 20.4088 1 24.4987C1 28.5887 9.73045 31.9042 20.5 31.9042Z" stroke="#39D3FD" stroke-width="1.38889"/>
<path d="M14.0528 28.2023C19.4376 37.479 26.6897 43.3414 30.2508 41.2964C33.8119 39.2514 32.3335 30.0735 26.9487 20.7968C21.564 11.5202 14.3119 5.65777 10.7508 7.70274C7.18967 9.74771 8.66805 18.9257 14.0528 28.2023Z" stroke="#39D3FD" stroke-width="1.38889"/>
<path d="M14.0519 20.7976C8.66708 30.0742 7.1887 39.2522 10.7498 41.2972C14.3109 43.3422 21.563 37.4797 26.9478 28.2031C32.3325 18.9265 33.8109 9.74848 30.2498 7.70351C26.6887 5.65854 19.4366 11.521 14.0519 20.7976Z" stroke="#39D3FD" stroke-width="1.38889"/>
</g>
</svg>
