<svg width="161" height="33" viewBox="0 0 161 33" fill="none" xmlns="http://www.w3.org/2000/svg">
<path d="M6.48633 12.1289V13.5H1.94531V12.1289H6.48633ZM2.51953 4.96875V13.5H0.761719V4.96875H2.51953ZM5.89453 8.44336V9.7793H1.94531V8.44336H5.89453ZM6.48047 4.96875V6.3457H1.94531V4.96875H6.48047ZM9.55898 4.96875L11.1645 7.94531L12.7699 4.96875H14.7797L12.3012 9.19922L14.8441 13.5H12.8168L11.1645 10.4648L9.51211 13.5H7.47305L10.0219 9.19922L7.5375 4.96875H9.55898ZM21.1219 10.6699H22.8738C22.8387 11.2441 22.6805 11.7539 22.3992 12.1992C22.1219 12.6445 21.7332 12.9922 21.2332 13.2422C20.7371 13.4922 20.1395 13.6172 19.4402 13.6172C18.8934 13.6172 18.4031 13.5234 17.9695 13.3359C17.5359 13.1445 17.1648 12.8711 16.8562 12.5156C16.5516 12.1602 16.3191 11.7305 16.159 11.2266C15.9988 10.7227 15.9187 10.1582 15.9187 9.5332V8.94141C15.9187 8.31641 16.0008 7.75195 16.1648 7.24805C16.3328 6.74023 16.5711 6.30859 16.8797 5.95312C17.1922 5.59766 17.5652 5.32422 17.9988 5.13281C18.4324 4.94141 18.9168 4.8457 19.452 4.8457C20.1629 4.8457 20.7625 4.97461 21.2508 5.23242C21.743 5.49023 22.1238 5.8457 22.3934 6.29883C22.6668 6.75195 22.8309 7.26758 22.8855 7.8457H21.1277C21.1082 7.50195 21.0398 7.21094 20.9227 6.97266C20.8055 6.73047 20.6277 6.54883 20.3895 6.42773C20.1551 6.30273 19.8426 6.24023 19.452 6.24023C19.159 6.24023 18.9031 6.29492 18.6844 6.4043C18.4656 6.51367 18.282 6.67969 18.1336 6.90234C17.9852 7.125 17.8738 7.40625 17.7996 7.74609C17.7293 8.08203 17.6941 8.47656 17.6941 8.92969V9.5332C17.6941 9.97461 17.7273 10.3633 17.7937 10.6992C17.8602 11.0312 17.9617 11.3125 18.0984 11.543C18.2391 11.7695 18.4187 11.9414 18.6375 12.0586C18.8602 12.1719 19.1277 12.2285 19.4402 12.2285C19.8074 12.2285 20.1102 12.1699 20.3484 12.0527C20.5867 11.9355 20.7684 11.7617 20.8934 11.5312C21.0223 11.3008 21.0984 11.0137 21.1219 10.6699ZM30.3527 12.1289V13.5H25.8117V12.1289H30.3527ZM26.3859 4.96875V13.5H24.6281V4.96875H26.3859ZM29.7609 8.44336V9.7793H25.8117V8.44336H29.7609ZM30.3469 4.96875V6.3457H25.8117V4.96875H30.3469ZM37.4625 12.1289V13.5H33.1676V12.1289H37.4625ZM33.7359 4.96875V13.5H31.9781V4.96875H33.7359ZM44.5547 12.1289V13.5H40.2598V12.1289H44.5547ZM40.8281 4.96875V13.5H39.0703V4.96875H40.8281ZM51.8871 12.1289V13.5H47.3461V12.1289H51.8871ZM47.9203 4.96875V13.5H46.1625V4.96875H47.9203ZM51.2953 8.44336V9.7793H47.3461V8.44336H51.2953ZM51.8812 4.96875V6.3457H47.3461V4.96875H51.8812ZM60.4559 4.96875V13.5H58.698L55.2703 7.78125V13.5H53.5125V4.96875H55.2703L58.7039 10.6934V4.96875H60.4559ZM66.2238 4.96875V13.5H64.4719V4.96875H66.2238ZM68.8488 4.96875V6.3457H61.8879V4.96875H68.8488Z" fill="white"/>
<path d="M84.2292 0.567409C84.3379 0.339673 84.6621 0.339673 84.7708 0.56741L86.878 4.98349C86.9217 5.07515 87.0089 5.13845 87.1096 5.15172L91.9607 5.79119C92.2108 5.82417 92.311 6.13247 92.128 6.3062L88.5792 9.67496C88.5056 9.74487 88.4723 9.8473 88.4908 9.94716L89.3817 14.7585C89.4276 15.0066 89.1654 15.1971 88.9436 15.0767L84.6431 12.7427C84.5539 12.6942 84.4461 12.6942 84.3569 12.7427L80.0564 15.0767C79.8346 15.1971 79.5724 15.0066 79.6183 14.7585L80.5092 9.94716C80.5277 9.8473 80.4944 9.74487 80.4208 9.67496L76.872 6.3062C76.689 6.13247 76.7892 5.82417 77.0393 5.79119L81.8904 5.15172C81.9911 5.13845 82.0783 5.07515 82.122 4.98349L84.2292 0.567409Z" fill="#FAD171"/>
<path d="M101.229 0.567409C101.338 0.339673 101.662 0.339673 101.771 0.56741L103.878 4.98349C103.922 5.07515 104.009 5.13845 104.11 5.15172L108.961 5.79119C109.211 5.82417 109.311 6.13247 109.128 6.3062L105.579 9.67496C105.506 9.74487 105.472 9.8473 105.491 9.94716L106.382 14.7585C106.428 15.0066 106.165 15.1971 105.944 15.0767L101.643 12.7427C101.554 12.6942 101.446 12.6942 101.357 12.7427L97.0564 15.0767C96.8346 15.1971 96.5724 15.0066 96.6183 14.7585L97.5092 9.94716C97.5277 9.8473 97.4944 9.74487 97.4208 9.67496L93.872 6.3062C93.689 6.13247 93.7892 5.82417 94.0393 5.79119L98.8904 5.15172C98.9911 5.13845 99.0783 5.07515 99.122 4.98349L101.229 0.567409Z" fill="#FAD171"/>
<path d="M118.229 0.567409C118.338 0.339673 118.662 0.339673 118.771 0.56741L120.878 4.98349C120.922 5.07515 121.009 5.13845 121.11 5.15172L125.961 5.79119C126.211 5.82417 126.311 6.13247 126.128 6.3062L122.579 9.67496C122.506 9.74487 122.472 9.8473 122.491 9.94716L123.382 14.7585C123.428 15.0066 123.165 15.1971 122.944 15.0767L118.643 12.7427C118.554 12.6942 118.446 12.6942 118.357 12.7427L114.056 15.0767C113.835 15.1971 113.572 15.0066 113.618 14.7585L114.509 9.94716C114.528 9.8473 114.494 9.74487 114.421 9.67496L110.872 6.3062C110.689 6.13247 110.789 5.82417 111.039 5.79119L115.89 5.15172C115.991 5.13845 116.078 5.07515 116.122 4.98349L118.229 0.567409Z" fill="#FAD171"/>
<path d="M135.229 0.567409C135.338 0.339673 135.662 0.339673 135.771 0.56741L137.878 4.98349C137.922 5.07515 138.009 5.13845 138.11 5.15172L142.961 5.79119C143.211 5.82417 143.311 6.13247 143.128 6.3062L139.579 9.67496C139.506 9.74487 139.472 9.8473 139.491 9.94716L140.382 14.7585C140.428 15.0066 140.165 15.1971 139.944 15.0767L135.643 12.7427C135.554 12.6942 135.446 12.6942 135.357 12.7427L131.056 15.0767C130.835 15.1971 130.572 15.0066 130.618 14.7585L131.509 9.94716C131.528 9.8473 131.494 9.74487 131.421 9.67496L127.872 6.3062C127.689 6.13247 127.789 5.82417 128.039 5.79119L132.89 5.15172C132.991 5.13845 133.078 5.07515 133.122 4.98349L135.229 0.567409Z" fill="#FAD171"/>
<path d="M152.229 0.567409C152.338 0.339673 152.662 0.339673 152.771 0.56741L154.878 4.98349C154.922 5.07515 155.009 5.13845 155.11 5.15172L159.961 5.79119C160.211 5.82417 160.311 6.13247 160.128 6.3062L156.579 9.67496C156.506 9.74487 156.472 9.8473 156.491 9.94716L157.382 14.7585C157.428 15.0066 157.165 15.1971 156.944 15.0767L152.643 12.7427C152.554 12.6942 152.446 12.6942 152.357 12.7427L148.056 15.0767C147.835 15.1971 147.572 15.0066 147.618 14.7585L148.509 9.94716C148.528 9.8473 148.494 9.74487 148.421 9.67496L144.872 6.3062C144.689 6.13247 144.789 5.82417 145.039 5.79119L149.89 5.15172C149.991 5.13845 150.078 5.07515 150.122 4.98349L152.229 0.567409Z" fill="#FAD171"/>
<path opacity="0.8" d="M2.6875 28.3398H1.24609L1.23828 27.7344H2.54688C2.76302 27.7344 2.95182 27.6979 3.11328 27.625C3.27474 27.5521 3.39974 27.4479 3.48828 27.3125C3.57943 27.1745 3.625 27.0104 3.625 26.8203C3.625 26.612 3.58464 26.4427 3.50391 26.3125C3.42578 26.1797 3.30469 26.0833 3.14062 26.0234C2.97917 25.9609 2.77344 25.9297 2.52344 25.9297H1.41406V31H0.660156V25.3125H2.52344C2.8151 25.3125 3.07552 25.3424 3.30469 25.4023C3.53385 25.4596 3.72786 25.5508 3.88672 25.6758C4.04818 25.7982 4.17057 25.9544 4.25391 26.1445C4.33724 26.3346 4.37891 26.5625 4.37891 26.8281C4.37891 27.0625 4.31901 27.2747 4.19922 27.4648C4.07943 27.6523 3.91276 27.806 3.69922 27.9258C3.48828 28.0456 3.24089 28.1224 2.95703 28.1562L2.6875 28.3398ZM2.65234 31H0.949219L1.375 30.3867H2.65234C2.89193 30.3867 3.09505 30.3451 3.26172 30.2617C3.43099 30.1784 3.5599 30.0612 3.64844 29.9102C3.73698 29.7565 3.78125 29.5755 3.78125 29.3672C3.78125 29.1562 3.74349 28.974 3.66797 28.8203C3.59245 28.6667 3.47396 28.5482 3.3125 28.4648C3.15104 28.3815 2.94271 28.3398 2.6875 28.3398H1.61328L1.62109 27.7344H3.08984L3.25 27.9531C3.52344 27.9766 3.75521 28.0547 3.94531 28.1875C4.13542 28.3177 4.27995 28.4844 4.37891 28.6875C4.48047 28.8906 4.53125 29.1146 4.53125 29.3594C4.53125 29.7135 4.45312 30.013 4.29688 30.2578C4.14323 30.5 3.92578 30.6849 3.64453 30.8125C3.36328 30.9375 3.03255 31 2.65234 31ZM7.83 25.8164L5.94719 31H5.17766L7.34562 25.3125H7.84172L7.83 25.8164ZM9.40812 31L7.52141 25.8164L7.50969 25.3125H8.00578L10.1816 31H9.40812ZM9.31047 28.8945V29.5117H6.11516V28.8945H9.31047ZM14.0545 29.5625C14.0545 29.4297 14.0337 29.3125 13.992 29.2109C13.953 29.1068 13.8827 29.013 13.7811 28.9297C13.6821 28.8464 13.5441 28.7669 13.367 28.6914C13.1926 28.6159 12.9712 28.5391 12.703 28.4609C12.4217 28.3776 12.1678 28.2852 11.9412 28.1836C11.7147 28.0794 11.5207 27.9609 11.3592 27.8281C11.1978 27.6953 11.0741 27.543 10.9881 27.3711C10.9022 27.1992 10.8592 27.0026 10.8592 26.7812C10.8592 26.5599 10.9048 26.3555 10.9959 26.168C11.0871 25.9805 11.2173 25.8177 11.3866 25.6797C11.5584 25.5391 11.7629 25.4297 11.9998 25.3516C12.2368 25.2734 12.5011 25.2344 12.7928 25.2344C13.2199 25.2344 13.5819 25.3164 13.8787 25.4805C14.1782 25.6419 14.4061 25.8542 14.5623 26.1172C14.7186 26.3776 14.7967 26.6562 14.7967 26.9531H14.0467C14.0467 26.7396 14.0011 26.5508 13.91 26.3867C13.8189 26.2201 13.6808 26.0898 13.4959 25.9961C13.311 25.8997 13.0767 25.8516 12.7928 25.8516C12.5246 25.8516 12.3032 25.8919 12.1287 25.9727C11.9543 26.0534 11.8241 26.1628 11.7381 26.3008C11.6548 26.4388 11.6131 26.5964 11.6131 26.7734C11.6131 26.8932 11.6379 27.0026 11.6873 27.1016C11.7394 27.1979 11.8189 27.2878 11.9256 27.3711C12.035 27.4544 12.173 27.5312 12.3397 27.6016C12.509 27.6719 12.7108 27.7396 12.9452 27.8047C13.2681 27.8958 13.5467 27.9974 13.7811 28.1094C14.0155 28.2214 14.2082 28.3477 14.3592 28.4883C14.5129 28.6263 14.6261 28.7839 14.6991 28.9609C14.7746 29.1354 14.8123 29.3333 14.8123 29.5547C14.8123 29.7865 14.7655 29.9961 14.6717 30.1836C14.578 30.3711 14.4439 30.5312 14.2694 30.6641C14.0949 30.7969 13.8853 30.8997 13.6405 30.9727C13.3983 31.043 13.1274 31.0781 12.828 31.0781C12.5649 31.0781 12.3058 31.0417 12.0506 30.9688C11.798 30.8958 11.5676 30.7865 11.3592 30.6406C11.1535 30.4948 10.9881 30.3151 10.8631 30.1016C10.7407 29.8854 10.6795 29.6354 10.6795 29.3516H11.4295C11.4295 29.5469 11.4673 29.7148 11.5428 29.8555C11.6183 29.9935 11.7212 30.1081 11.8514 30.1992C11.9842 30.2904 12.134 30.3581 12.3006 30.4023C12.4699 30.444 12.6457 30.4648 12.828 30.4648C13.091 30.4648 13.3136 30.4284 13.4959 30.3555C13.6782 30.2826 13.8162 30.1784 13.91 30.043C14.0064 29.9076 14.0545 29.7474 14.0545 29.5625ZM19.4666 30.3867V31H16.4548V30.3867H19.4666ZM16.6072 25.3125V31H15.8533V25.3125H16.6072ZM19.0681 27.7578V28.3711H16.4548V27.7578H19.0681ZM19.4275 25.3125V25.9297H16.4548V25.3125H19.4275ZM22.0192 31H20.8317L20.8395 30.3867H22.0192C22.4255 30.3867 22.764 30.3021 23.0348 30.1328C23.3057 29.9609 23.5088 29.7214 23.6442 29.4141C23.7822 29.1042 23.8512 28.7422 23.8512 28.3281V27.9805C23.8512 27.6549 23.8122 27.3659 23.7341 27.1133C23.6559 26.8581 23.5414 26.6432 23.3903 26.4688C23.2393 26.2917 23.0544 26.1576 22.8356 26.0664C22.6195 25.9753 22.3708 25.9297 22.0895 25.9297H20.8083V25.3125H22.0895C22.4619 25.3125 22.8018 25.375 23.1091 25.5C23.4164 25.6224 23.6807 25.8008 23.902 26.0352C24.126 26.2669 24.2979 26.5482 24.4177 26.8789C24.5374 27.207 24.5973 27.5768 24.5973 27.9883V28.3281C24.5973 28.7396 24.5374 29.1107 24.4177 29.4414C24.2979 29.7695 24.1247 30.0495 23.8981 30.2812C23.6742 30.513 23.4033 30.6914 23.0856 30.8164C22.7705 30.9388 22.4151 31 22.0192 31ZM21.2341 25.3125V31H20.4802V25.3125H21.2341ZM32.2534 27.9766V28.3359C32.2534 28.763 32.2001 29.1458 32.0933 29.4844C31.9865 29.8229 31.8329 30.1107 31.6323 30.3477C31.4318 30.5846 31.1909 30.7656 30.9097 30.8906C30.631 31.0156 30.3185 31.0781 29.9722 31.0781C29.6362 31.0781 29.3277 31.0156 29.0464 30.8906C28.7678 30.7656 28.5256 30.5846 28.3198 30.3477C28.1167 30.1107 27.9592 29.8229 27.8472 29.4844C27.7352 29.1458 27.6792 28.763 27.6792 28.3359V27.9766C27.6792 27.5495 27.7339 27.168 27.8433 26.832C27.9553 26.4935 28.1128 26.2057 28.3159 25.9688C28.5191 25.7292 28.7599 25.5469 29.0386 25.4219C29.3198 25.2969 29.6284 25.2344 29.9644 25.2344C30.3107 25.2344 30.6232 25.2969 30.9019 25.4219C31.1831 25.5469 31.424 25.7292 31.6245 25.9688C31.8277 26.2057 31.9826 26.4935 32.0894 26.832C32.1987 27.168 32.2534 27.5495 32.2534 27.9766ZM31.5073 28.3359V27.9688C31.5073 27.6302 31.4722 27.3307 31.4019 27.0703C31.3342 26.8099 31.2339 26.5911 31.1011 26.4141C30.9683 26.237 30.8055 26.1029 30.6128 26.0117C30.4227 25.9206 30.2066 25.875 29.9644 25.875C29.73 25.875 29.5178 25.9206 29.3277 26.0117C29.1402 26.1029 28.9787 26.237 28.8433 26.4141C28.7105 26.5911 28.6076 26.8099 28.5347 27.0703C28.4618 27.3307 28.4253 27.6302 28.4253 27.9688V28.3359C28.4253 28.6771 28.4618 28.9792 28.5347 29.2422C28.6076 29.5026 28.7118 29.7227 28.8472 29.9023C28.9852 30.0794 29.148 30.2135 29.3355 30.3047C29.5256 30.3958 29.7378 30.4414 29.9722 30.4414C30.217 30.4414 30.4344 30.3958 30.6245 30.3047C30.8146 30.2135 30.9748 30.0794 31.105 29.9023C31.2378 29.7227 31.3381 29.5026 31.4058 29.2422C31.4735 28.9792 31.5073 28.6771 31.5073 28.3359ZM37.8373 25.3125V31H37.0795L34.2163 26.6133V31H33.4623V25.3125H34.2163L37.0913 29.7109V25.3125H37.8373ZM43.9036 25.3047H43.9661V25.918H43.9036C43.5208 25.918 43.2005 25.9805 42.9427 26.1055C42.6848 26.2279 42.4804 26.3932 42.3294 26.6016C42.1783 26.8073 42.069 27.0391 42.0013 27.2969C41.9361 27.5547 41.9036 27.8164 41.9036 28.082V28.918C41.9036 29.1706 41.9335 29.3945 41.9934 29.5898C42.0533 29.7826 42.1354 29.9453 42.2395 30.0781C42.3437 30.2109 42.4609 30.3112 42.5911 30.3789C42.7239 30.4466 42.8619 30.4805 43.0052 30.4805C43.1718 30.4805 43.3203 30.4492 43.4505 30.3867C43.5807 30.3216 43.6901 30.2318 43.7786 30.1172C43.8697 30 43.9388 29.862 43.9856 29.7031C44.0325 29.5443 44.0559 29.3698 44.0559 29.1797C44.0559 29.0104 44.0351 28.8477 43.9934 28.6914C43.9518 28.5326 43.888 28.3919 43.802 28.2695C43.7161 28.1445 43.608 28.0469 43.4778 27.9766C43.3502 27.9036 43.1979 27.8672 43.0208 27.8672C42.8203 27.8672 42.6328 27.9167 42.4583 28.0156C42.2864 28.112 42.1445 28.2396 42.0325 28.3984C41.9231 28.5547 41.8606 28.7253 41.845 28.9102L41.4622 28.9062C41.4986 28.6146 41.5664 28.3659 41.6653 28.1602C41.7669 27.9518 41.8919 27.7826 42.0403 27.6523C42.1914 27.5195 42.3593 27.4232 42.5442 27.3633C42.7317 27.3008 42.9296 27.2695 43.138 27.2695C43.4218 27.2695 43.6666 27.3229 43.8723 27.4297C44.0781 27.5365 44.2473 27.6797 44.3802 27.8594C44.513 28.0365 44.6106 28.237 44.6731 28.4609C44.7382 28.6823 44.7708 28.9102 44.7708 29.1445C44.7708 29.4128 44.733 29.6641 44.6575 29.8984C44.582 30.1328 44.4687 30.3385 44.3177 30.5156C44.1692 30.6927 43.9856 30.8307 43.7669 30.9297C43.5481 31.0286 43.2942 31.0781 43.0052 31.0781C42.6979 31.0781 42.4296 31.0156 42.2005 30.8906C41.9713 30.763 41.7812 30.5938 41.6302 30.3828C41.4791 30.1719 41.3658 29.9375 41.2903 29.6797C41.2148 29.4219 41.177 29.1602 41.177 28.8945V28.5547C41.177 28.1536 41.2174 27.7604 41.2981 27.375C41.3789 26.9896 41.5182 26.6406 41.7161 26.3281C41.9166 26.0156 42.194 25.7669 42.5481 25.582C42.9023 25.3971 43.3541 25.3047 43.9036 25.3047ZM47.962 25.3125H49.8448C50.2719 25.3125 50.6326 25.3776 50.9269 25.5078C51.2238 25.638 51.449 25.8307 51.6027 26.0859C51.7589 26.3385 51.837 26.6497 51.837 27.0195C51.837 27.2799 51.7836 27.5182 51.6769 27.7344C51.5727 27.9479 51.4217 28.1302 51.2238 28.2812C51.0284 28.4297 50.7941 28.5404 50.5206 28.6133L50.3097 28.6953H48.5402L48.5323 28.082H49.8683C50.1391 28.082 50.3644 28.0352 50.5441 27.9414C50.7238 27.8451 50.8592 27.7161 50.9503 27.5547C51.0415 27.3932 51.087 27.2148 51.087 27.0195C51.087 26.8008 51.0441 26.6094 50.9581 26.4453C50.8722 26.2812 50.7368 26.1549 50.5519 26.0664C50.3696 25.9753 50.1339 25.9297 49.8448 25.9297H48.7159V31H47.962V25.3125ZM51.2863 31L49.9034 28.4219L50.6886 28.418L52.0909 30.9531V31H51.2863ZM56.585 30.3867V31H53.5733V30.3867H56.585ZM53.7256 25.3125V31H52.9717V25.3125H53.7256ZM56.1866 27.7578V28.3711H53.5733V27.7578H56.1866ZM56.5459 25.3125V25.9297H53.5733V25.3125H56.5459ZM59.4345 30.1367L61.1103 25.3125H61.9267L59.8213 31H59.2392L59.4345 30.1367ZM57.8681 25.3125L59.5283 30.1367L59.7353 31H59.1533L57.0517 25.3125H57.8681ZM63.5809 25.3125V31H62.827V25.3125H63.5809ZM68.6453 30.3867V31H65.6336V30.3867H68.6453ZM65.7859 25.3125V31H65.032V25.3125H65.7859ZM68.2469 27.7578V28.3711H65.6336V27.7578H68.2469ZM68.6062 25.3125V25.9297H65.6336V25.3125H68.6062ZM71.155 29.2812L72.2839 25.3125H72.8308L72.5144 26.8555L71.2995 31H70.7566L71.155 29.2812ZM69.987 25.3125L70.8855 29.2031L71.155 31H70.6159L69.237 25.3125H69.987ZM74.2917 29.1992L75.1706 25.3125H75.9245L74.5495 31H74.0105L74.2917 29.1992ZM72.9128 25.3125L74.0105 29.2812L74.4089 31H73.8659L72.6941 26.8555L72.3737 25.3125H72.9128ZM79.8717 29.5625C79.8717 29.4297 79.8509 29.3125 79.8092 29.2109C79.7702 29.1068 79.6998 29.013 79.5983 28.9297C79.4993 28.8464 79.3613 28.7669 79.1842 28.6914C79.0097 28.6159 78.7884 28.5391 78.5202 28.4609C78.2389 28.3776 77.985 28.2852 77.7584 28.1836C77.5319 28.0794 77.3379 27.9609 77.1764 27.8281C77.0149 27.6953 76.8913 27.543 76.8053 27.3711C76.7194 27.1992 76.6764 27.0026 76.6764 26.7812C76.6764 26.5599 76.722 26.3555 76.8131 26.168C76.9043 25.9805 77.0345 25.8177 77.2038 25.6797C77.3756 25.5391 77.5801 25.4297 77.817 25.3516C78.054 25.2734 78.3183 25.2344 78.61 25.2344C79.0371 25.2344 79.3991 25.3164 79.6959 25.4805C79.9954 25.6419 80.2233 25.8542 80.3795 26.1172C80.5358 26.3776 80.6139 26.6562 80.6139 26.9531H79.8639C79.8639 26.7396 79.8183 26.5508 79.7272 26.3867C79.636 26.2201 79.498 26.0898 79.3131 25.9961C79.1282 25.8997 78.8939 25.8516 78.61 25.8516C78.3418 25.8516 78.1204 25.8919 77.9459 25.9727C77.7715 26.0534 77.6413 26.1628 77.5553 26.3008C77.472 26.4388 77.4303 26.5964 77.4303 26.7734C77.4303 26.8932 77.4551 27.0026 77.5045 27.1016C77.5566 27.1979 77.636 27.2878 77.7428 27.3711C77.8522 27.4544 77.9902 27.5312 78.1569 27.6016C78.3261 27.6719 78.528 27.7396 78.7623 27.8047C79.0853 27.8958 79.3639 27.9974 79.5983 28.1094C79.8327 28.2214 80.0254 28.3477 80.1764 28.4883C80.3301 28.6263 80.4433 28.7839 80.5163 28.9609C80.5918 29.1354 80.6295 29.3333 80.6295 29.5547C80.6295 29.7865 80.5827 29.9961 80.4889 30.1836C80.3952 30.3711 80.261 30.5312 80.0866 30.6641C79.9121 30.7969 79.7024 30.8997 79.4577 30.9727C79.2155 31.043 78.9446 31.0781 78.6452 31.0781C78.3821 31.0781 78.123 31.0417 77.8678 30.9688C77.6152 30.8958 77.3847 30.7865 77.1764 30.6406C76.9707 30.4948 76.8053 30.3151 76.6803 30.1016C76.5579 29.8854 76.4967 29.6354 76.4967 29.3516H77.2467C77.2467 29.5469 77.2845 29.7148 77.36 29.8555C77.4355 29.9935 77.5384 30.1081 77.6686 30.1992C77.8014 30.2904 77.9511 30.3581 78.1178 30.4023C78.2871 30.444 78.4629 30.4648 78.6452 30.4648C78.9082 30.4648 79.1308 30.4284 79.3131 30.3555C79.4954 30.2826 79.6334 30.1784 79.7272 30.043C79.8235 29.9076 79.8717 29.7474 79.8717 29.5625Z" fill="#747E8B"/>
<g clipPath="url(#clip0_20226_17390)">
<path d="M91.2859 26.5167C91.2859 26.5167 90.707 26.4614 90.707 26.9562V29.1538H94.5297V29.8133C94.5297 29.8133 94.5411 30.1429 94.1822 30.1429H90.707V33H94.8772C94.8772 33 97.4022 32.6262 97.4255 30.1429V26.5167H91.2859ZM97.3094 23H89.7801C87.0576 23.6152 87 25.7581 87 25.7581V33H89.8963V26.4067C89.8963 25.8462 90.4752 25.7476 90.4752 25.7476H97.3099V23H97.3094ZM107.249 30.9276C107.051 31.0548 106.904 31.1481 106.8 31.2076C106.429 31.4281 106.075 31.5981 105.747 31.7338C105.271 31.9205 104.848 32.0138 104.468 32.0138C103.164 32.0138 102.084 31.6319 101.211 30.8595C100.339 30.0871 99.9078 29.12 99.9078 27.949C99.9078 26.8205 100.297 25.8443 101.082 25.0124C101.868 24.181 102.819 23.7733 103.941 23.7733C104.408 23.7733 104.909 23.8495 105.427 24.0114C106.101 24.2148 106.645 24.5205 107.077 24.919L106.325 25.7167C106.006 25.42 105.591 25.199 105.107 25.0633C104.745 24.9614 104.348 24.911 103.907 24.911C103.121 24.911 102.456 25.2157 101.929 25.8186C101.402 26.4295 101.135 27.151 101.135 27.9995C101.135 28.84 101.436 29.5271 102.041 30.079C102.646 30.6305 103.414 30.9105 104.347 30.9105C104.736 30.9105 105.133 30.7914 105.539 30.5629C105.876 30.3167 106.049 30.1976 106.057 30.189V28.4495H103.535L103.898 27.3633H107.249V30.9276ZM114.867 28.8057C114.867 29.6457 114.557 30.3757 113.935 30.9867C113.313 31.5976 112.544 31.9119 111.629 31.9119C110.782 31.9119 110.039 31.6062 109.4 31.0038C108.761 30.4014 108.45 29.6714 108.45 28.8143C108.45 27.9657 108.753 27.2357 109.357 26.6076C109.961 25.9795 110.704 25.6743 111.576 25.6743C112.544 25.6743 113.33 25.9714 113.943 26.5738C114.557 27.1595 114.867 27.9062 114.867 28.8057ZM113.684 28.8229C113.684 28.2543 113.485 27.7705 113.088 27.38C112.691 26.981 112.199 26.7857 111.611 26.7857C111.059 26.7857 110.592 26.9895 110.203 27.3971C109.815 27.8043 109.624 28.271 109.624 28.7971C109.624 29.349 109.823 29.8157 110.212 30.2062C110.6 30.5967 111.084 30.8 111.671 30.8C112.216 30.8 112.682 30.6048 113.08 30.2143C113.485 29.8238 113.684 29.3571 113.684 28.8229H113.684ZM122.382 28.8057C122.382 29.6457 122.071 30.3757 121.449 30.9867C120.827 31.5976 120.058 31.9119 119.143 31.9119C118.296 31.9119 117.554 31.6062 116.914 31.0038C116.275 30.4014 115.964 29.6714 115.964 28.8143C115.964 27.9657 116.267 27.2357 116.871 26.6076C117.476 25.9795 118.219 25.6743 119.091 25.6743C120.058 25.6743 120.844 25.9714 121.457 26.5738C122.071 27.1595 122.382 27.9062 122.382 28.8057ZM121.198 28.8229C121.198 28.2543 121 27.7705 120.602 27.38C120.205 26.981 119.713 26.7857 119.126 26.7857C118.573 26.7857 118.106 26.9895 117.718 27.3971C117.329 27.8043 117.139 28.271 117.139 28.7971C117.139 29.349 117.337 29.8157 117.727 30.2062C118.115 30.5967 118.599 30.8 119.186 30.8C119.73 30.8 120.196 30.6048 120.594 30.2143C121 29.8238 121.199 29.3571 121.199 28.8229H121.198ZM129.335 31.7419L128.247 31.9033V30.8933L128.014 31.1476C127.808 31.3323 127.575 31.4868 127.322 31.6062C126.952 31.7703 126.548 31.8543 126.139 31.8524C125.293 31.8524 124.567 31.5552 123.98 30.9524C123.393 30.3495 123.099 29.6371 123.099 28.8057C123.099 27.9486 123.393 27.2105 123.971 26.599C124.55 25.9876 125.258 25.6824 126.105 25.6824C126.589 25.6824 127.012 25.7586 127.366 25.9114C127.616 26.0219 127.832 26.1662 128.014 26.3448C128.074 26.421 128.135 26.5057 128.195 26.5819V23.9343L129.352 23.7729L129.335 31.7419ZM128.316 28.8819C128.316 28.2881 128.108 27.7871 127.685 27.38C127.262 26.9638 126.787 26.7605 126.243 26.7605C125.639 26.7605 125.155 26.9557 124.784 27.3462C124.438 27.719 124.256 28.1776 124.256 28.7124C124.256 29.3148 124.438 29.8152 124.8 30.2057C125.163 30.5962 125.621 30.7914 126.183 30.7914C126.735 30.7914 127.219 30.6133 127.651 30.2486C128.091 29.8748 128.316 29.4167 128.316 28.8819H128.316ZM135.441 25.0381H132.203V27.151H134.716V28.2371H132.203V31.7338L130.942 31.9119V23.9429H135.191L135.441 25.0381ZM138.041 24.4181L137.264 25.36L136.521 24.4181L137.307 23.4848L138.041 24.4181ZM137.808 31.7419L136.651 31.8948V25.9967L137.808 25.8271V31.7424V31.7419ZM143.034 25.7676L142.49 26.9724C142.418 26.9619 142.346 26.9564 142.274 26.9557C142.161 26.9557 142.049 26.9643 141.937 26.981C141.824 26.9976 141.703 27.0405 141.574 27.1C141.332 27.2019 141.125 27.4224 140.944 27.7533C140.743 28.1289 140.639 28.5452 140.641 28.9671V31.7338L139.484 31.9119V25.9967L140.555 25.81V27.0405C140.693 26.8281 140.84 26.6162 140.978 26.3957C141.177 26.1748 141.41 26.0138 141.669 25.92C141.807 25.8695 142.058 25.8267 142.438 25.7929C142.8 25.7676 143.008 25.7505 143.034 25.7676ZM151.653 31.7419L150.496 31.9033V27.8552C150.496 27.4814 150.41 27.21 150.237 27.0405C150.064 26.8705 149.805 26.7857 149.468 26.7857C149.062 26.7857 148.751 26.9471 148.544 27.2695C148.405 27.49 148.328 27.7276 148.328 27.9652V31.7333L147.171 31.9371V27.8805C147.171 27.5243 147.084 27.2524 146.92 27.0662C146.747 26.879 146.523 26.7857 146.229 26.7857H146.117C145.711 26.7857 145.417 26.9471 145.236 27.2781C145.098 27.5243 145.029 27.8381 145.029 28.22V31.7333L143.828 31.9371V25.9967L144.907 25.8186V26.5738C145.029 26.3952 145.149 26.251 145.262 26.1495C145.573 25.8695 145.936 25.7333 146.341 25.7333C146.799 25.7333 147.135 25.8014 147.369 25.9457C147.567 26.0648 147.758 26.3019 147.948 26.6414C148.345 26.039 148.906 25.7333 149.65 25.7333C150.357 25.7333 150.885 25.9457 151.23 26.3786C151.515 26.7348 151.653 27.261 151.653 27.9486V31.7419ZM156.94 29.9514C156.94 30.4943 156.742 30.9443 156.345 31.2924C155.948 31.6486 155.446 31.8186 154.841 31.8186C154.384 31.8186 153.978 31.7167 153.606 31.5129C153.235 31.3095 152.959 31.08 152.777 30.8086L153.589 30.1129C153.649 30.1976 153.702 30.2652 153.753 30.3162C154.056 30.6133 154.418 30.7662 154.841 30.7662C155.135 30.7662 155.369 30.69 155.532 30.5457C155.705 30.4014 155.783 30.1976 155.783 29.9343C155.783 29.6376 155.585 29.4338 155.187 29.3233C154.401 29.0943 153.978 28.9671 153.918 28.9414C153.555 28.7633 153.295 28.5767 153.131 28.3643C152.95 28.1181 152.855 27.7957 152.855 27.38C152.855 26.8705 153.054 26.4467 153.442 26.1071C153.831 25.7676 154.297 25.6062 154.832 25.6062C155.239 25.6062 155.619 25.691 155.964 25.8695C156.31 26.0476 156.56 26.2343 156.707 26.4552L156.016 27.1762C155.912 27.0765 155.8 26.9857 155.679 26.9048C155.403 26.7181 155.135 26.6248 154.885 26.6248C154.643 26.6248 154.444 26.6757 154.289 26.7771C154.107 26.9048 154.012 27.0914 154.012 27.3376C154.012 27.5752 154.099 27.7533 154.28 27.8638C154.436 27.9571 154.764 28.059 155.282 28.169C155.8 28.2881 156.198 28.4919 156.483 28.7805C156.802 29.0857 156.94 29.4676 156.94 29.9514Z" fill="white"/>
</g>
<defs>
<clipPath id="clip0_20226_17390">
<rect width="70" height="10" fill="white" transform="translate(87 23)"/>
</clipPath>
</defs>
</svg>
