<svg width="50" height="50" viewBox="0 0 50 50" fill="none" xmlns="http://www.w3.org/2000/svg">
<path d="M17.7798 4.9981C18.7933 4.41796 20.1134 4.41534 21.1261 4.9981C26.2207 7.87683 31.317 10.7511 36.4107 13.6315C37.3688 14.1712 38.0096 15.2374 37.9999 16.3414V33.6609C38.007 34.8106 37.3028 35.9023 36.2921 36.4298C31.2142 39.2926 26.1389 42.159 21.0619 45.0218C20.0274 45.6133 18.6808 45.5678 17.6786 44.9278C16.1562 44.0453 14.6313 43.1671 13.1088 42.2855C12.7977 42.1 12.447 41.9524 12.2273 41.6507C12.4215 41.389 12.7687 41.3564 13.0508 41.2421C13.6863 41.04 14.2699 40.7157 14.8537 40.4009C15.0013 40.2999 15.1816 40.3386 15.3231 40.429C16.6249 41.1754 17.9152 41.9435 19.2213 42.6828C19.5 42.8436 19.7821 42.6301 20.0203 42.4973C25.0032 39.681 29.9923 36.8754 34.9744 34.0582C35.159 33.9694 35.2611 33.7735 35.2461 33.5713C35.2496 27.8579 35.2469 22.1435 35.2478 16.4302C35.2689 16.2008 35.1362 15.9898 34.9287 15.8959C29.8684 13.0461 24.8108 10.192 19.7514 7.34153C19.6637 7.28127 19.5599 7.24893 19.4535 7.24878C19.3471 7.24862 19.2432 7.28065 19.1554 7.34066C14.096 10.192 9.0392 13.0488 3.9798 15.8984C3.77307 15.9924 3.63433 16.1999 3.65894 16.4302C3.65981 22.1435 3.65894 27.8579 3.65894 33.5721C3.65017 33.6708 3.67183 33.7698 3.72103 33.8558C3.77022 33.9417 3.84458 34.0106 3.93409 34.053C5.28421 34.8186 6.63608 35.5788 7.98708 36.3418C8.74818 36.7515 9.68267 36.9949 10.5212 36.681C11.2612 36.4156 11.7799 35.6605 11.7658 34.8748C11.7728 29.1948 11.7623 23.5139 11.771 17.8348C11.7525 17.5826 11.9917 17.3743 12.2369 17.398C12.8856 17.3936 13.5352 17.3893 14.1839 17.3998C14.4547 17.3936 14.641 17.6652 14.6075 17.9192C14.6049 23.6352 14.6145 29.3513 14.6032 35.0673C14.6049 36.5906 13.9791 38.2482 12.57 38.9936C10.8341 39.8928 8.68849 39.7021 6.97354 38.8399C5.4889 38.0988 4.0721 37.2243 2.61381 36.4305C1.60041 35.9059 0.89973 34.8099 0.906864 33.6611V16.3414C0.896236 15.2146 1.56256 14.129 2.55048 13.5972C7.62749 10.732 12.7036 7.8646 17.7798 4.9981Z" fill="#80CA31"/>
<path d="M22.2089 16.9954C24.4232 16.8529 26.7937 16.911 28.7863 18.0018C30.329 18.8378 31.1843 20.5922 31.2115 22.3061C31.1684 22.5373 30.9268 22.6648 30.7061 22.6489C30.0636 22.6481 29.421 22.6577 28.7786 22.6446C28.506 22.655 28.3476 22.4038 28.3134 22.1628C28.1288 21.3428 27.6816 20.5306 26.9097 20.135C25.7248 19.5418 24.351 19.5716 23.0589 19.584C22.1157 19.6341 21.1015 19.7158 20.3024 20.2704C19.6889 20.6906 19.5025 21.5387 19.7215 22.2218C19.9279 22.7123 20.4941 22.8705 20.9573 23.0164C23.6258 23.7143 26.4536 23.6449 29.0712 24.5633C30.1549 24.9378 31.215 25.6657 31.5859 26.8003C32.0712 28.3211 31.8585 30.1388 30.7765 31.3597C29.8991 32.3643 28.6212 32.9111 27.3466 33.2081C25.651 33.5862 23.8914 33.5958 22.1694 33.4279C20.5503 33.2433 18.8653 32.818 17.6154 31.7147C16.5465 30.7867 16.0244 29.3406 16.0763 27.9449C16.0886 27.7092 16.3233 27.5448 16.5491 27.5642C17.1961 27.559 17.843 27.5572 18.49 27.5651C18.7484 27.5466 18.94 27.7699 18.9533 28.0135C19.0726 28.7948 19.3663 29.6149 20.0476 30.0781C21.3625 30.9264 23.0124 30.8683 24.518 30.8921C25.7653 30.8367 27.1655 30.82 28.1834 29.9956C28.7205 29.5253 28.8796 28.7386 28.7344 28.0618C28.5772 27.4904 27.9795 27.2241 27.4661 27.05C24.8318 26.2167 21.9725 26.5191 19.3636 25.5767C18.3045 25.2024 17.2804 24.4948 16.8735 23.4067C16.3057 21.8667 16.5659 19.9619 17.7612 18.7823C18.9268 17.6089 20.6092 17.157 22.2089 16.9953V16.9954Z" fill="#80CA31"/>
</svg>
