<svg width="50" height="50" viewBox="0 0 50 50" fill="none" xmlns="http://www.w3.org/2000/svg">
<g clipPath="url(#clip0_244_546)">
<g style="mix-blend-mode:luminosity">
<path d="M3.0562 39.0961L-0.00146484 5.8335H33.6144L30.5567 39.0781L16.7786 42.7779" fill="#F25228"/>
<path d="M16.8062 39.9497V8.56396H30.5471L27.9249 36.9413" fill="#FF7134"/>
<path d="M6.2417 12.6318H16.8046V16.7088H10.856L11.2452 20.8846H16.8046V24.9526H7.39064L6.2417 12.6318ZM7.57595 27.0001H11.8011L12.0976 30.2599L16.8046 31.4812V35.7378L8.16896 33.403" fill="#EBEBEB"/>
<path d="M27.3314 12.6318H16.7871V16.7088H26.9423L27.3314 12.6318ZM26.5624 20.8846H16.7871V24.9616H21.9759L21.4848 30.2599L16.7871 31.4812V35.7199L25.4042 33.403" fill="white"/>
</g>
</g>
<defs>
<clipPath id="clip0_244_546">
<rect width="50" height="50" fill="white"/>
</clipPath>
</defs>
</svg>
