<svg width="50" height="50" viewBox="0 0 50 50" fill="none" xmlns="http://www.w3.org/2000/svg">
<g style="mix-blend-mode:luminosity">
<path d="M7.95628 7H27.9191C28.8905 7 29.8338 7.15469 30.7488 7.47814C32.0722 7.95628 33.2688 8.80005 34.1698 9.89695C35.0849 10.9939 35.6903 12.3439 35.9015 13.7502C35.9859 14.2705 36 14.7908 36 15.3112V34.7601C36 35.3789 35.9718 36.0117 35.8451 36.6164C35.5636 38.0086 34.9019 39.3165 33.9446 40.3712C33.0014 41.4259 31.7625 42.2134 30.425 42.6353C29.6085 42.8885 28.7638 43.001 27.9051 43.001C27.5249 43.001 7.89997 43.001 7.60433 42.9869C6.16835 42.9166 4.74646 42.4525 3.54981 41.6509C2.38132 40.8634 1.42401 39.7665 0.804569 38.5008C0.269599 37.418 0.00211349 36.2086 0.00211349 34.9992V15.0018C-0.0260429 13.8064 0.227364 12.6252 0.748257 11.5564C1.35362 10.2907 2.29686 9.17975 3.46534 8.39222C4.66199 7.57658 6.06981 7.09844 7.50578 7.02813C7.64656 7 7.80142 7 7.95628 7Z" fill="url(#paint0_linear_244_542)"/>
<path d="M20.318 12.3438C32.1999 20.4158 28.3566 29.3176 28.3566 29.3176C28.3566 29.3176 31.7354 33.1287 30.3698 36.4616C30.3698 36.4616 28.9761 34.1271 26.6391 34.1271C24.3866 34.1271 23.0632 36.4616 18.5301 36.4616C8.43606 36.4616 3.66357 28.0379 3.66357 28.0379C12.758 34.0146 18.9665 29.7817 18.9665 29.7817C14.8698 27.4051 6.1554 16.0423 6.1554 16.0423C13.7435 22.4971 17.0237 24.1988 17.0237 24.1988C15.0669 22.5815 9.57639 14.6782 9.57639 14.6782C13.9688 19.1221 22.6972 25.3238 22.6972 25.3238C25.175 18.4611 20.318 12.3438 20.318 12.3438Z" fill="white"/>
</g>
<defs>
<linearGradient id="paint0_linear_244_542" x1="21.3856" y1="5.71536" x2="14.5907" y2="44.2925" gradientUnits="userSpaceOnUse">
<stop stop-color="#FAAE42"/>
<stop offset="1" stop-color="#EF3E31"/>
</linearGradient>
</defs>
</svg>
