<svg width="50" height="50" viewBox="0 0 50 50" fill="none" xmlns="http://www.w3.org/2000/svg">
<g style="mix-blend-mode:luminosity">
<path d="M25.6371 32.1421C27.0025 31.9972 28.0383 30.7909 27.9912 29.3431C27.9442 27.8954 26.767 26.7372 25.3545 26.7372H25.2604C23.8007 26.7855 22.6707 28.0402 22.7179 29.5361C22.765 30.26 23.0474 30.8873 23.4711 31.3216C21.8703 34.555 19.422 36.9195 15.7494 38.8981C13.2539 40.2493 10.6644 40.7319 8.07481 40.3941C5.95599 40.1046 4.30804 39.1395 3.27204 37.5468C1.76545 35.1823 1.62424 32.6246 2.89554 30.067C3.79019 28.2332 5.20254 26.882 6.09719 26.2063C5.90887 25.579 5.62631 24.5174 5.4851 23.7454C-1.34212 28.8124 -0.635795 35.6649 1.43592 38.8981C2.98963 41.3111 6.14431 42.807 9.62852 42.807C10.5701 42.807 11.5118 42.7104 12.4535 42.4693C18.4803 41.2628 23.0475 37.5951 25.6371 32.1421ZM33.9239 26.1582C30.3455 21.8633 25.0721 19.4987 19.0453 19.4987H18.292C17.8682 18.6301 16.9736 18.0509 15.9849 18.0509H15.8906C14.4312 18.0992 13.3012 19.3538 13.3482 20.8499C13.3953 22.2976 14.5724 23.4558 15.9849 23.4558H16.079C17.1148 23.4075 18.0095 22.7319 18.3861 21.815H19.2336C22.8121 21.815 26.2021 22.8766 29.2627 24.9517C31.6168 26.5442 33.3118 28.6193 34.2535 31.1286C35.0539 33.1555 35.0068 35.134 34.1592 36.8231C32.841 39.3807 30.628 40.7802 27.7088 40.7802C25.8254 40.7802 24.0363 40.201 23.0945 39.7667C22.5766 40.2493 21.6349 41.0213 20.9757 41.5041C23.0004 42.4691 25.0721 43 27.0496 43C31.5697 43 34.9127 40.4423 36.184 37.8847C37.5494 35.0857 37.4551 30.26 33.9239 26.1582ZM10.0052 32.9623C10.0523 34.4101 11.2294 35.5682 12.6419 35.5682H12.7361C14.1957 35.52 15.3257 34.2652 15.2785 32.7693C15.2316 31.3215 14.0544 30.1634 12.6419 30.1634H12.5478C12.4535 30.1634 12.3122 30.1634 12.2182 30.2116C10.2877 26.9301 9.48732 23.3592 9.76988 19.4985C9.95806 16.6031 10.8998 14.0937 12.5478 12.0186C13.9132 10.233 16.5498 9.36441 18.3391 9.31627C23.3299 9.21969 25.4486 15.5896 25.59 18.1473C26.2021 18.292 27.2379 18.6299 27.9442 18.8712C27.3791 11.0537 22.6707 7 18.1508 7C13.9132 7 10.0052 10.1367 8.45132 14.7694C6.28552 20.9463 7.69802 26.882 10.3347 31.5629C10.0994 31.9007 9.95806 32.4316 10.0052 32.9624V32.9623Z" fill="#9F6AF4"/>
</g>
</svg>
