<svg width="30" height="30" viewBox="0 0 30 30" fill="none" xmlns="http://www.w3.org/2000/svg">
<path d="M28 8.13076C27.1905 8.49216 26.3207 8.73645 25.4077 8.84628C26.3395 8.2839 27.0552 7.3934 27.3923 6.33224C26.52 6.85304 25.5542 7.23118 24.526 7.43493C23.7027 6.55178 22.5297 6 21.2314 6C18.7388 6 16.7179 8.03447 16.7179 10.544C16.7179 10.9001 16.7578 11.2469 16.8348 11.5796C13.0836 11.39 9.75782 9.58097 7.5317 6.83167C7.14318 7.5028 6.92056 8.28339 6.92056 9.11618C6.92056 10.6927 7.71737 12.0836 8.92849 12.8985C8.18861 12.8749 7.49265 12.6705 6.88417 12.3301C6.88374 12.3491 6.88374 12.3681 6.88374 12.3873C6.88374 14.5889 8.43959 16.4255 10.5043 16.843C10.1256 16.9468 9.72684 17.0025 9.3152 17.0025C9.02435 17.0025 8.74162 16.974 8.46597 16.9209C9.04038 18.7261 10.7072 20.0401 12.6823 20.0766C11.1376 21.2955 9.19141 22.0219 7.07671 22.0219C6.71238 22.0219 6.35312 22.0004 6 21.9583C7.99744 23.2477 10.37 24 12.9189 24C21.2209 24 25.7608 17.0757 25.7608 11.0708C25.7608 10.8738 25.7563 10.6779 25.7477 10.4829C26.6297 9.8423 27.3949 9.04199 28 8.13076Z" fill="#F4F5F6"/>
</svg>
