<svg width="1104" height="1106" viewBox="0 0 1104 1106" fill="none" xmlns="http://www.w3.org/2000/svg">
<path d="M836 570.533C836 429.882 722.725 315.862 582.992 315.862H329.984V570.533C329.984 711.184 443.26 825.204 582.992 825.204C722.724 825.204 836 711.184 836 570.533Z" fill="#1389F0"/>
<path d="M492.642 869.747C492.642 898.605 469.4 922 440.73 922C412.06 922 388.818 898.605 388.818 869.747C388.818 840.888 412.06 817.493 440.73 817.493C469.4 817.493 492.642 840.888 492.642 869.747Z" fill="#F3790E"/>
<path d="M775.221 869.747C775.221 898.605 751.979 922 723.309 922C694.639 922 671.397 898.605 671.397 869.747C671.397 840.888 694.639 817.493 723.309 817.493C751.979 817.493 775.221 840.888 775.221 869.747Z" fill="#F3790E"/>
<path d="M703.036 449.7C679.293 425.802 649.044 409.527 616.112 402.933C583.18 396.339 549.046 399.724 518.025 412.657C487.004 425.591 460.49 447.494 441.836 475.595C423.182 503.697 413.225 536.735 413.225 570.533C413.225 604.33 423.182 637.369 441.836 665.471C460.49 693.572 487.004 715.475 518.025 728.408C549.046 741.342 583.18 744.726 616.112 738.133C649.044 731.539 679.293 715.264 703.036 691.366L663.764 651.836C647.789 667.916 627.435 678.867 605.277 683.303C583.119 687.74 560.151 685.463 539.279 676.76C518.406 668.058 500.566 653.32 488.014 634.412C475.463 615.504 468.764 593.274 468.764 570.533C468.763 547.792 475.463 525.562 488.014 506.654C500.566 487.745 518.406 473.008 539.279 464.306C560.151 455.603 583.119 453.326 605.277 457.763C627.435 462.199 647.789 473.15 663.764 489.23L703.036 449.7Z" fill="white"/>
<path d="M401.714 317.565C401.646 299.958 398.135 282.536 391.379 266.295C384.623 250.053 374.755 235.31 362.338 222.908C349.922 210.505 335.2 200.686 319.013 194.01C302.827 187.335 285.492 183.933 268 184.001L268.275 256.243C276.343 256.212 284.337 257.781 291.802 260.86C299.267 263.938 306.057 268.467 311.783 274.187C317.51 279.907 322.061 286.706 325.177 294.197C328.292 301.687 329.912 309.722 329.943 317.842L401.714 317.565Z" fill="#1389F0"/>
</svg>
